<svg width="50" height="50" viewBox="0 0 50 50" fill="none" xmlns="http://www.w3.org/2000/svg">
<path fill-rule="evenodd" clip-rule="evenodd" d="M26.4983 11.1776C28.5784 10.6423 30.1973 8.95784 30.6379 6.8413C31.7809 7.19579 32.8777 7.65524 33.9172 8.20836C33.3158 9.10935 32.9653 10.192 32.9653 11.3565C32.9653 12.2954 33.1932 13.181 33.5966 13.9612C33.216 14.2158 32.9653 14.6496 32.9653 15.142C32.9653 15.926 33.6009 16.5615 34.3849 16.5615C34.8175 16.5615 35.205 16.3679 35.4654 16.0627C36.3723 16.6763 37.4661 17.0347 38.6435 17.0347C39.808 17.0347 40.8907 16.6842 41.7916 16.0828C42.3687 17.1672 42.8438 18.314 43.2041 19.5106C41.0626 19.9381 39.3558 21.57 38.8196 23.6701C38.7619 23.663 38.7032 23.6593 38.6435 23.6593C37.8595 23.6593 37.224 24.2949 37.224 25.0789C37.224 25.8629 37.8595 26.4984 38.6435 26.4984C38.7032 26.4984 38.7619 26.4947 38.8196 26.4876C39.352 28.5729 41.0385 30.1966 43.1587 30.6379C42.8042 31.7809 42.3448 32.8777 41.7916 33.9172C40.8907 33.3158 39.808 32.9653 38.6435 32.9653C37.9338 32.9653 37.2544 33.0955 36.6281 33.3334C36.4066 32.8376 35.9093 32.4921 35.3312 32.4921C34.5472 32.4921 33.9117 33.1277 33.9117 33.9117C33.9117 34.3127 34.0779 34.6748 34.3453 34.933C33.4854 35.9282 32.9653 37.2251 32.9653 38.6435C32.9653 39.808 33.3158 40.8907 33.9172 41.7916C32.8777 42.3448 31.7809 42.8042 30.6379 43.1587C30.1973 41.0422 28.5784 39.3577 26.4983 38.8224L26.4984 38.8101L26.4984 38.8013C26.4984 38.0173 25.8629 37.3817 25.0789 37.3817C24.2949 37.3817 23.6593 38.0173 23.6593 38.8013L23.6595 38.8224C21.5645 39.3615 19.9373 41.0663 19.5106 43.2041C18.314 42.8438 17.1672 42.3687 16.0828 41.7916C16.6842 40.8907 17.0347 39.808 17.0347 38.6435C17.0347 37.8405 16.868 37.0765 16.5674 36.3841C16.8544 36.1243 17.0347 35.7488 17.0347 35.3312C17.0347 34.5472 16.3991 33.9117 15.6151 33.9117C15.3239 33.9117 15.0532 33.9993 14.828 34.1497C13.8681 33.4072 12.6639 32.9653 11.3565 32.9653C10.192 32.9653 9.10935 33.3158 8.20836 33.9172C7.65524 32.8777 7.19579 31.7809 6.8413 30.6379C8.95784 30.1973 10.6423 28.5784 11.1776 26.4983L11.1987 26.4984C11.9827 26.4984 12.6183 25.8629 12.6183 25.0789C12.6183 24.2949 11.9827 23.6593 11.1987 23.6593L11.1776 23.6595C10.6385 21.5645 8.93374 19.9373 6.79592 19.5106C7.20347 18.1572 7.75781 16.8675 8.44043 15.6598C9.43484 16.5167 10.7295 17.0347 12.1451 17.0347C13.2397 17.0347 14.262 16.725 15.1291 16.1884C15.3817 16.4201 15.7185 16.5615 16.0883 16.5615C16.8723 16.5615 17.5079 15.926 17.5079 15.142C17.5079 14.7514 17.3501 14.3976 17.0949 14.141C17.5587 13.3182 17.8233 12.3683 17.8233 11.3565C17.8233 10.0619 17.3901 8.86853 16.6608 7.91341C17.5722 7.46775 18.5245 7.09287 19.5106 6.79592C19.9373 8.93374 21.5645 10.6385 23.6595 11.1776L23.6593 11.1987C23.6593 11.9827 24.2949 12.6183 25.0789 12.6183C25.8629 12.6183 26.4984 11.9827 26.4984 11.1987L26.4983 11.1776ZM6.79592 19.5106C6.43456 19.4385 6.06081 19.4006 5.67823 19.4006C2.54223 19.4006 0 21.9429 0 25.0789C0 28.2149 2.54223 30.7571 5.67823 30.7571C6.07685 30.7571 6.46588 30.716 6.8413 30.6379C6.28884 28.8565 5.99129 26.963 5.99129 25C5.99129 23.0914 6.27256 21.2486 6.79592 19.5106ZM8.20836 33.9172C6.68299 34.9352 5.67823 36.672 5.67823 38.6435C5.67823 41.7795 8.22046 44.3218 11.3565 44.3218C13.328 44.3218 15.0648 43.317 16.0828 41.7916C12.7382 40.0118 9.98824 37.2618 8.20836 33.9172ZM19.5106 43.2041C19.4385 43.5654 19.4006 43.9392 19.4006 44.3218C19.4006 47.4578 21.9429 50 25.0789 50C28.2149 50 30.7571 47.4578 30.7571 44.3218C30.7571 43.9231 30.716 43.5341 30.6379 43.1587C28.8565 43.7112 26.963 44.0087 25 44.0087C23.0914 44.0087 21.2486 43.7274 19.5106 43.2041ZM33.9172 41.7916C34.9352 43.317 36.672 44.3218 38.6435 44.3218C41.7795 44.3218 44.3218 41.7795 44.3218 38.6435C44.3218 36.672 43.317 34.9352 41.7916 33.9172C40.0118 37.2618 37.2618 40.0118 33.9172 41.7916ZM43.1587 30.6379C43.5341 30.716 43.9231 30.7571 44.3218 30.7571C47.4578 30.7571 50 28.2149 50 25.0789C50 21.9429 47.4578 19.4006 44.3218 19.4006C43.9392 19.4006 43.5654 19.4385 43.2041 19.5106C43.7274 21.2486 44.0087 23.0914 44.0087 25C44.0087 26.963 43.7112 28.8565 43.1587 30.6379ZM41.7916 16.0828C40.0118 12.7382 37.2618 9.98824 33.9172 8.20836C34.9352 6.68299 36.672 5.67823 38.6435 5.67823C41.7795 5.67823 44.3218 8.22046 44.3218 11.3565C44.3218 13.328 43.317 15.0648 41.7916 16.0828ZM19.5106 6.79592C19.4385 6.43456 19.4006 6.06081 19.4006 5.67823C19.4006 2.54223 21.9429 0 25.0789 0C28.2149 0 30.7571 2.54223 30.7571 5.67823C30.7571 6.07685 30.716 6.46588 30.6379 6.8413C28.8565 6.28884 26.963 5.99129 25 5.99129C23.0914 5.99129 21.2486 6.27256 19.5106 6.79592ZM12.1451 5.67823C13.9866 5.67823 15.6233 6.55479 16.6608 7.91341C13.1999 9.60568 10.3291 12.3185 8.44043 15.6598C7.23196 14.6185 6.46688 13.0768 6.46688 11.3565C6.46688 8.22046 9.00911 5.67823 12.1451 5.67823ZM35.1114 22.5948C35.3689 22.7755 35.5149 23.0281 35.5496 23.3524H36.8753C36.8679 22.9241 36.7478 22.5453 36.5151 22.216C36.2824 21.8843 35.9618 21.6256 35.5533 21.4399C35.1473 21.2517 34.6744 21.1577 34.1347 21.1577C33.6024 21.1577 33.1258 21.2517 32.705 21.4399C32.2841 21.6256 31.9511 21.8868 31.706 22.2235C31.4634 22.5602 31.3421 22.9526 31.3421 23.4007C31.3421 23.9453 31.5228 24.3823 31.8843 24.7116C32.2482 25.0384 32.7433 25.2822 33.3697 25.4432L34.235 25.666C34.5073 25.7353 34.745 25.8145 34.948 25.9036C35.1535 25.9903 35.3132 26.0992 35.427 26.2304C35.5409 26.3592 35.5991 26.5226 35.6016 26.7206C35.5991 26.9385 35.5335 27.1291 35.4048 27.2925C35.276 27.4535 35.0978 27.5797 34.87 27.6713C34.6447 27.7604 34.3823 27.805 34.0827 27.805C33.7955 27.805 33.5356 27.7617 33.3029 27.675C33.0726 27.5884 32.8857 27.4572 32.7421 27.2814C32.5985 27.1056 32.5168 26.8853 32.497 26.6204H31.1415C31.1613 27.1254 31.2926 27.5537 31.5352 27.9053C31.7803 28.2568 32.1194 28.5242 32.5527 28.7074C32.9884 28.8906 33.5022 28.9822 34.0939 28.9822C34.7029 28.9822 35.2215 28.8881 35.6499 28.7C36.0806 28.5094 36.4099 28.2457 36.6377 27.909C36.8654 27.5698 36.9793 27.1774 36.9793 26.7318C36.9793 26.4025 36.9174 26.1153 36.7936 25.8702C36.6699 25.6251 36.5015 25.4159 36.2886 25.2426C36.0782 25.0693 35.8392 24.9257 35.5719 24.8118C35.307 24.698 35.0309 24.6076 34.7437 24.5408L34.0307 24.3625C33.8747 24.3254 33.72 24.2796 33.5665 24.2251C33.413 24.1706 33.2731 24.1038 33.1469 24.0246C33.0206 23.9429 32.9204 23.8438 32.8461 23.7275C32.7743 23.6111 32.7384 23.4737 32.7384 23.3153C32.7409 23.1246 32.7966 22.955 32.9055 22.8065C33.0144 22.658 33.1716 22.5404 33.3771 22.4537C33.5826 22.3671 33.8289 22.3237 34.1161 22.3237C34.5246 22.3237 34.8564 22.4141 35.1114 22.5948ZM12.9077 28.8671H14.3783L15.0073 26.9917H17.8666L18.4967 28.8671H19.9673L17.2861 21.2616H15.5852L12.9077 28.8671ZM17.4948 25.8851L16.4654 22.8214H16.4059L15.3784 25.8851H17.4948ZM22.3468 28.8671V21.2616H20.969V28.8671H22.3468ZM26.416 28.8671H23.8387V21.2616H26.468C27.2231 21.2616 27.8717 21.4139 28.4139 21.7184C28.9586 22.0204 29.377 22.4549 29.6691 23.0219C29.9612 23.5888 30.1073 24.2672 30.1073 25.0569C30.1073 25.8492 29.96 26.53 29.6654 27.0994C29.3732 27.6688 28.9511 28.1058 28.399 28.4103C27.8494 28.7148 27.1884 28.8671 26.416 28.8671ZM25.2165 27.675H26.3491C26.8789 27.675 27.3209 27.5785 27.6749 27.3854C28.0289 27.1898 28.2951 26.8989 28.4733 26.5127C28.6516 26.124 28.7407 25.6387 28.7407 25.0569C28.7407 24.4751 28.6516 23.9924 28.4733 23.6086C28.2951 23.2224 28.0314 22.934 27.6823 22.7434C27.3357 22.5503 26.9049 22.4537 26.39 22.4537H25.2165V27.675Z" fill="#B5E4FF"/>
</svg>
