<svg width="207" height="50" viewBox="0 0 207 50" fill="none" xmlns="http://www.w3.org/2000/svg">
<path d="M54.5256 33.456V29.4936H55.2067C55.4354 29.3113 55.6492 29.0545 55.8481 28.723C56.0469 28.3916 56.216 27.9375 56.3552 27.3608C56.4944 26.7841 56.5905 26.0384 56.6435 25.1236L56.912 20.8182H63.4198V29.4936H64.5533V33.446H62.7834V31H56.2955V33.456H54.5256ZM57.3545 29.4936H61.6499V22.3644H58.5725L58.4134 25.1236C58.3703 25.8163 58.3007 26.4361 58.2046 26.983C58.1085 27.5298 57.9875 28.0121 57.8417 28.4297C57.6959 28.844 57.5334 29.1986 57.3545 29.4936Z" fill="#B5E4FF"/>
<path d="M75.154 25.9091C75.154 27.0062 74.9485 27.9458 74.5375 28.728C74.1299 29.5069 73.573 30.1035 72.8671 30.5178C72.1644 30.9321 71.3673 31.1392 70.4757 31.1392C69.5842 31.1392 68.7854 30.9321 68.0794 30.5178C67.3768 30.1002 66.82 29.5019 66.409 28.723C66.0013 27.9408 65.7975 27.0028 65.7975 25.9091C65.7975 24.812 66.0013 23.8741 66.409 23.0952C66.82 22.313 67.3768 21.7147 68.0794 21.3004C68.7854 20.8861 69.5842 20.679 70.4757 20.679C71.3673 20.679 72.1644 20.8861 72.8671 21.3004C73.573 21.7147 74.1299 22.313 74.5375 23.0952C74.9485 23.8741 75.154 24.812 75.154 25.9091ZM73.2996 25.9091C73.2996 25.1368 73.1786 24.4856 72.9367 23.9553C72.698 23.4216 72.3666 23.0189 71.9424 22.7472C71.5181 22.4721 71.0292 22.3345 70.4757 22.3345C69.9222 22.3345 69.4334 22.4721 69.0091 22.7472C68.5849 23.0189 68.2518 23.4216 68.0098 23.9553C67.7712 24.4856 67.6519 25.1368 67.6519 25.9091C67.6519 26.6814 67.7712 27.3343 68.0098 27.8679C68.2518 28.3982 68.5849 28.8009 69.0091 29.076C69.4334 29.3478 69.9222 29.4837 70.4757 29.4837C71.0292 29.4837 71.5181 29.3478 71.9424 29.076C72.3666 28.8009 72.698 28.3982 72.9367 27.8679C73.1786 27.3343 73.2996 26.6814 73.2996 25.9091Z" fill="#B5E4FF"/>
<path d="M85.2053 20.8182V31H83.3758V22.3494H78.9212V31H77.0917V20.8182H85.2053Z" fill="#B5E4FF"/>
<path d="M96.5095 25.9091C96.5095 27.0062 96.304 27.9458 95.893 28.728C95.4853 29.5069 94.9285 30.1035 94.2225 30.5178C93.5199 30.9321 92.7228 31.1392 91.8312 31.1392C90.9396 31.1392 90.1409 30.9321 89.4349 30.5178C88.7323 30.1002 88.1754 29.5019 87.7644 28.723C87.3568 27.9408 87.1529 27.0028 87.1529 25.9091C87.1529 24.812 87.3568 23.8741 87.7644 23.0952C88.1754 22.313 88.7323 21.7147 89.4349 21.3004C90.1409 20.8861 90.9396 20.679 91.8312 20.679C92.7228 20.679 93.5199 20.8861 94.2225 21.3004C94.9285 21.7147 95.4853 22.313 95.893 23.0952C96.304 23.8741 96.5095 24.812 96.5095 25.9091ZM94.6551 25.9091C94.6551 25.1368 94.5341 24.4856 94.2921 23.9553C94.0535 23.4216 93.7221 23.0189 93.2978 22.7472C92.8736 22.4721 92.3847 22.3345 91.8312 22.3345C91.2777 22.3345 90.7888 22.4721 90.3646 22.7472C89.9403 23.0189 89.6072 23.4216 89.3653 23.9553C89.1267 24.4856 89.0073 25.1368 89.0073 25.9091C89.0073 26.6814 89.1267 27.3343 89.3653 27.8679C89.6072 28.3982 89.9403 28.8009 90.3646 29.076C90.7888 29.3478 91.2777 29.4837 91.8312 29.4837C92.3847 29.4837 92.8736 29.3478 93.2978 29.076C93.7221 28.8009 94.0535 28.3982 94.2921 27.8679C94.5341 27.3343 94.6551 26.6814 94.6551 25.9091Z" fill="#B5E4FF"/>
<path d="M98.2533 20.8182H100.51L103.533 28.196H103.652L106.675 20.8182H108.932V31H107.162V24.005H107.068L104.254 30.9702H102.932L100.118 23.9901H100.023V31H98.2533V20.8182Z" fill="#B5E4FF"/>
<path d="M120.039 25.9091C120.039 27.0062 119.833 27.9458 119.422 28.728C119.015 29.5069 118.458 30.1035 117.752 30.5178C117.049 30.9321 116.252 31.1392 115.361 31.1392C114.469 31.1392 113.67 30.9321 112.964 30.5178C112.262 30.1002 111.705 29.5019 111.294 28.723C110.886 27.9408 110.682 27.0028 110.682 25.9091C110.682 24.812 110.886 23.8741 111.294 23.0952C111.705 22.313 112.262 21.7147 112.964 21.3004C113.67 20.8861 114.469 20.679 115.361 20.679C116.252 20.679 117.049 20.8861 117.752 21.3004C118.458 21.7147 119.015 22.313 119.422 23.0952C119.833 23.8741 120.039 24.812 120.039 25.9091ZM118.184 25.9091C118.184 25.1368 118.063 24.4856 117.821 23.9553C117.583 23.4216 117.251 23.0189 116.827 22.7472C116.403 22.4721 115.914 22.3345 115.361 22.3345C114.807 22.3345 114.318 22.4721 113.894 22.7472C113.47 23.0189 113.137 23.4216 112.895 23.9553C112.656 24.4856 112.537 25.1368 112.537 25.9091C112.537 26.6814 112.656 27.3343 112.895 27.8679C113.137 28.3982 113.47 28.8009 113.894 29.076C114.318 29.3478 114.807 29.4837 115.361 29.4837C115.914 29.4837 116.403 29.3478 116.827 29.076C117.251 28.8009 117.583 28.3982 117.821 27.8679C118.063 27.3343 118.184 26.6814 118.184 25.9091Z" fill="#B5E4FF"/>
<path d="M128.33 20.8182V22.3644H123.627V31H121.783V20.8182H128.33Z" fill="#B5E4FF"/>
<path d="M129.967 31H127.998L131.583 20.8182H133.86L137.449 31H135.481L132.761 22.9063H132.682L129.967 31ZM130.032 27.0078H135.401V28.4894H130.032V27.0078Z" fill="#B5E4FF"/>
<path d="M141.602 33.456V29.4936H142.283C142.512 29.3113 142.725 29.0545 142.924 28.723C143.123 28.3916 143.292 27.9375 143.431 27.3608C143.571 26.7841 143.667 26.0384 143.72 25.1236L143.988 20.8182H150.496V29.4936H151.63V33.446H149.86V31H143.372V33.456H141.602ZM144.431 29.4936H148.726V22.3644H145.649L145.49 25.1236C145.447 25.8163 145.377 26.4361 145.281 26.983C145.185 27.5298 145.064 28.0121 144.918 28.4297C144.772 28.844 144.61 29.1986 144.431 29.4936Z" fill="#B5E4FF"/>
<path d="M152.471 31V29.4688L152.759 29.4538C153.15 29.4306 153.46 29.2898 153.689 29.0313C153.921 28.7727 154.092 28.3568 154.201 27.7834C154.314 27.21 154.388 26.4411 154.425 25.4766L154.594 20.8182H161.266V31H159.461V22.3345H156.314L156.155 26.0483C156.108 27.1619 155.986 28.085 155.787 28.8175C155.591 29.55 155.27 30.0968 154.823 30.4581C154.378 30.8194 153.76 31 152.968 31H152.471Z" fill="#B5E4FF"/>
<path d="M170.794 31H168.944V22.3594H167.254C166.797 22.3594 166.42 22.4273 166.125 22.5632C165.834 22.6958 165.617 22.8913 165.474 23.1499C165.335 23.4051 165.265 23.7133 165.265 24.0746C165.265 24.4359 165.335 24.7408 165.474 24.9894C165.613 25.2346 165.829 25.4219 166.12 25.5511C166.415 25.6771 166.79 25.7401 167.244 25.7401H169.72V27.2713H166.995C166.213 27.2713 165.554 27.1421 165.017 26.8835C164.48 26.6217 164.072 26.2521 163.794 25.7749C163.519 25.2943 163.381 24.7275 163.381 24.0746C163.381 23.425 163.517 22.8565 163.789 22.3693C164.064 21.8788 164.468 21.4976 165.002 21.2259C165.535 20.9541 166.192 20.8182 166.971 20.8182H170.794V31ZM165.529 26.3864H167.542L165.066 31H163.008L165.529 26.3864Z" fill="#B5E4FF"/>
<path d="M176.265 31V20.8182H180.163C180.898 20.8182 181.51 20.9342 181.997 21.1662C182.488 21.3949 182.854 21.7081 183.096 22.1058C183.341 22.5036 183.464 22.9543 183.464 23.4581C183.464 23.8724 183.384 24.227 183.225 24.522C183.066 24.8137 182.852 25.0507 182.584 25.233C182.315 25.4153 182.015 25.5462 181.684 25.6257V25.7252C182.045 25.745 182.392 25.8561 182.723 26.0582C183.058 26.2571 183.331 26.5388 183.543 26.9034C183.756 27.268 183.862 27.7088 183.862 28.2259C183.862 28.7528 183.734 29.2268 183.479 29.6477C183.224 30.0653 182.839 30.3951 182.325 30.6371C181.812 30.879 181.165 31 180.386 31H176.265ZM178.109 29.4588H180.093C180.763 29.4588 181.245 29.3312 181.54 29.076C181.838 28.8175 181.987 28.486 181.987 28.0817C181.987 27.7801 181.913 27.5083 181.764 27.2663C181.614 27.0211 181.402 26.8288 181.127 26.6896C180.852 26.5471 180.524 26.4759 180.143 26.4759H178.109V29.4588ZM178.109 25.1484H179.934C180.252 25.1484 180.539 25.0904 180.794 24.9744C181.049 24.8551 181.25 24.6877 181.396 24.4723C181.545 24.2536 181.619 23.995 181.619 23.6967C181.619 23.3023 181.48 22.9775 181.202 22.7223C180.927 22.4671 180.517 22.3395 179.974 22.3395H178.109V25.1484Z" fill="#B5E4FF"/>
<path d="M193.774 20.8182V31H191.944V22.3494H187.49V31H185.66V20.8182H193.774Z" fill="#B5E4FF"/>
<path d="M205.078 25.9091C205.078 27.0062 204.872 27.9458 204.461 28.728C204.054 29.5069 203.497 30.1035 202.791 30.5178C202.088 30.9321 201.291 31.1392 200.4 31.1392C199.508 31.1392 198.709 30.9321 198.003 30.5178C197.301 30.1002 196.744 29.5019 196.333 28.723C195.925 27.9408 195.721 27.0028 195.721 25.9091C195.721 24.812 195.925 23.8741 196.333 23.0952C196.744 22.313 197.301 21.7147 198.003 21.3004C198.709 20.8861 199.508 20.679 200.4 20.679C201.291 20.679 202.088 20.8861 202.791 21.3004C203.497 21.7147 204.054 22.313 204.461 23.0952C204.872 23.8741 205.078 24.812 205.078 25.9091ZM203.223 25.9091C203.223 25.1368 203.102 24.4856 202.861 23.9553C202.622 23.4216 202.29 23.0189 201.866 22.7472C201.442 22.4721 200.953 22.3345 200.4 22.3345C199.846 22.3345 199.357 22.4721 198.933 22.7472C198.509 23.0189 198.176 23.4216 197.934 23.9553C197.695 24.4856 197.576 25.1368 197.576 25.9091C197.576 26.6814 197.695 27.3343 197.934 27.8679C198.176 28.3982 198.509 28.8009 198.933 29.076C199.357 29.3478 199.846 29.4837 200.4 29.4837C200.953 29.4837 201.442 29.3478 201.866 29.076C202.29 28.8009 202.622 28.3982 202.861 27.8679C203.102 27.3343 203.223 26.6814 203.223 25.9091Z" fill="#B5E4FF"/>
<path fill-rule="evenodd" clip-rule="evenodd" d="M26.4983 11.1776C28.5784 10.6423 30.1973 8.95784 30.6379 6.8413C31.7809 7.19579 32.8777 7.65524 33.9172 8.20836C33.3158 9.10935 32.9653 10.192 32.9653 11.3565C32.9653 12.2954 33.1932 13.181 33.5966 13.9612C33.216 14.2158 32.9653 14.6496 32.9653 15.142C32.9653 15.926 33.6009 16.5615 34.3849 16.5615C34.8175 16.5615 35.205 16.3679 35.4654 16.0627C36.3723 16.6763 37.4661 17.0347 38.6435 17.0347C39.808 17.0347 40.8907 16.6842 41.7916 16.0828C42.3687 17.1672 42.8438 18.314 43.2041 19.5106C41.0626 19.9381 39.3558 21.57 38.8196 23.6701C38.7619 23.663 38.7032 23.6593 38.6435 23.6593C37.8595 23.6593 37.224 24.2949 37.224 25.0789C37.224 25.8629 37.8595 26.4984 38.6435 26.4984C38.7032 26.4984 38.7619 26.4947 38.8196 26.4876C39.352 28.5729 41.0385 30.1966 43.1587 30.6379C42.8042 31.7809 42.3448 32.8777 41.7916 33.9172C40.8907 33.3158 39.808 32.9653 38.6435 32.9653C37.9338 32.9653 37.2544 33.0955 36.6281 33.3334C36.4066 32.8376 35.9093 32.4921 35.3312 32.4921C34.5472 32.4921 33.9117 33.1277 33.9117 33.9117C33.9117 34.3127 34.0779 34.6748 34.3453 34.933C33.4854 35.9282 32.9653 37.2251 32.9653 38.6435C32.9653 39.808 33.3158 40.8907 33.9172 41.7916C32.8777 42.3448 31.7809 42.8042 30.6379 43.1587C30.1973 41.0422 28.5784 39.3577 26.4983 38.8224L26.4984 38.8101L26.4984 38.8013C26.4984 38.0173 25.8629 37.3817 25.0789 37.3817C24.2949 37.3817 23.6593 38.0173 23.6593 38.8013L23.6595 38.8224C21.5645 39.3615 19.9373 41.0663 19.5106 43.2041C18.314 42.8438 17.1672 42.3687 16.0828 41.7916C16.6842 40.8907 17.0347 39.808 17.0347 38.6435C17.0347 37.8405 16.868 37.0765 16.5674 36.3841C16.8544 36.1243 17.0347 35.7488 17.0347 35.3312C17.0347 34.5472 16.3991 33.9117 15.6151 33.9117C15.3239 33.9117 15.0532 33.9993 14.828 34.1497C13.8681 33.4072 12.6639 32.9653 11.3565 32.9653C10.192 32.9653 9.10935 33.3158 8.20836 33.9172C7.65524 32.8777 7.19579 31.7809 6.8413 30.6379C8.95784 30.1973 10.6423 28.5784 11.1776 26.4983L11.1987 26.4984C11.9827 26.4984 12.6183 25.8629 12.6183 25.0789C12.6183 24.2949 11.9827 23.6593 11.1987 23.6593L11.1776 23.6595C10.6385 21.5645 8.93374 19.9373 6.79592 19.5106C7.20347 18.1572 7.75781 16.8675 8.44043 15.6598C9.43484 16.5167 10.7295 17.0347 12.1451 17.0347C13.2397 17.0347 14.262 16.725 15.1291 16.1884C15.3817 16.4201 15.7185 16.5615 16.0883 16.5615C16.8723 16.5615 17.5079 15.926 17.5079 15.142C17.5079 14.7514 17.3501 14.3976 17.0949 14.141C17.5587 13.3182 17.8233 12.3683 17.8233 11.3565C17.8233 10.0619 17.3901 8.86853 16.6608 7.91341C17.5722 7.46775 18.5245 7.09287 19.5106 6.79592C19.9373 8.93374 21.5645 10.6385 23.6595 11.1776L23.6593 11.1987C23.6593 11.9827 24.2949 12.6183 25.0789 12.6183C25.8629 12.6183 26.4984 11.9827 26.4984 11.1987L26.4983 11.1776ZM6.79592 19.5106C6.43456 19.4385 6.06081 19.4006 5.67823 19.4006C2.54223 19.4006 0 21.9429 0 25.0789C0 28.2149 2.54223 30.7571 5.67823 30.7571C6.07685 30.7571 6.46588 30.716 6.8413 30.6379C6.28884 28.8565 5.99129 26.963 5.99129 25C5.99129 23.0914 6.27256 21.2486 6.79592 19.5106ZM8.20836 33.9172C6.68299 34.9352 5.67823 36.672 5.67823 38.6435C5.67823 41.7795 8.22046 44.3218 11.3565 44.3218C13.328 44.3218 15.0648 43.317 16.0828 41.7916C12.7382 40.0118 9.98824 37.2618 8.20836 33.9172ZM19.5106 43.2041C19.4385 43.5654 19.4006 43.9392 19.4006 44.3218C19.4006 47.4578 21.9429 50 25.0789 50C28.2149 50 30.7571 47.4578 30.7571 44.3218C30.7571 43.9231 30.716 43.5341 30.6379 43.1587C28.8565 43.7112 26.963 44.0087 25 44.0087C23.0914 44.0087 21.2486 43.7274 19.5106 43.2041ZM33.9172 41.7916C34.9352 43.317 36.672 44.3218 38.6435 44.3218C41.7795 44.3218 44.3218 41.7795 44.3218 38.6435C44.3218 36.672 43.317 34.9352 41.7916 33.9172C40.0118 37.2618 37.2618 40.0118 33.9172 41.7916ZM43.1587 30.6379C43.5341 30.716 43.9231 30.7571 44.3218 30.7571C47.4578 30.7571 50 28.2149 50 25.0789C50 21.9429 47.4578 19.4006 44.3218 19.4006C43.9392 19.4006 43.5654 19.4385 43.2041 19.5106C43.7274 21.2486 44.0087 23.0914 44.0087 25C44.0087 26.963 43.7112 28.8565 43.1587 30.6379ZM41.7916 16.0828C40.0118 12.7382 37.2618 9.98824 33.9172 8.20836C34.9352 6.68299 36.672 5.67823 38.6435 5.67823C41.7795 5.67823 44.3218 8.22046 44.3218 11.3565C44.3218 13.328 43.317 15.0648 41.7916 16.0828ZM19.5106 6.79592C19.4385 6.43456 19.4006 6.06081 19.4006 5.67823C19.4006 2.54223 21.9429 0 25.0789 0C28.2149 0 30.7571 2.54223 30.7571 5.67823C30.7571 6.07685 30.716 6.46588 30.6379 6.8413C28.8565 6.28884 26.963 5.99129 25 5.99129C23.0914 5.99129 21.2486 6.27256 19.5106 6.79592ZM12.1451 5.67823C13.9866 5.67823 15.6233 6.55479 16.6608 7.91341C13.1999 9.60568 10.3291 12.3185 8.44043 15.6598C7.23196 14.6185 6.46688 13.0768 6.46688 11.3565C6.46688 8.22046 9.00911 5.67823 12.1451 5.67823ZM35.1114 22.5948C35.3689 22.7755 35.5149 23.0281 35.5496 23.3524H36.8753C36.8679 22.9241 36.7478 22.5453 36.5151 22.216C36.2824 21.8843 35.9618 21.6256 35.5533 21.4399C35.1473 21.2517 34.6744 21.1577 34.1347 21.1577C33.6024 21.1577 33.1258 21.2517 32.705 21.4399C32.2841 21.6256 31.9511 21.8868 31.706 22.2235C31.4634 22.5602 31.3421 22.9526 31.3421 23.4007C31.3421 23.9453 31.5228 24.3823 31.8843 24.7116C32.2482 25.0384 32.7433 25.2822 33.3697 25.4432L34.235 25.666C34.5073 25.7353 34.745 25.8145 34.948 25.9036C35.1535 25.9903 35.3132 26.0992 35.427 26.2304C35.5409 26.3592 35.5991 26.5226 35.6016 26.7206C35.5991 26.9385 35.5335 27.1291 35.4048 27.2925C35.276 27.4535 35.0978 27.5797 34.87 27.6713C34.6447 27.7604 34.3823 27.805 34.0827 27.805C33.7955 27.805 33.5356 27.7617 33.3029 27.675C33.0726 27.5884 32.8857 27.4572 32.7421 27.2814C32.5985 27.1056 32.5168 26.8853 32.497 26.6204H31.1415C31.1613 27.1254 31.2926 27.5537 31.5352 27.9053C31.7803 28.2568 32.1194 28.5242 32.5527 28.7074C32.9884 28.8906 33.5022 28.9822 34.0939 28.9822C34.7029 28.9822 35.2215 28.8881 35.6499 28.7C36.0806 28.5094 36.4099 28.2457 36.6377 27.909C36.8654 27.5698 36.9793 27.1774 36.9793 26.7318C36.9793 26.4025 36.9174 26.1153 36.7936 25.8702C36.6699 25.6251 36.5015 25.4159 36.2886 25.2426C36.0782 25.0693 35.8392 24.9257 35.5719 24.8118C35.307 24.698 35.0309 24.6076 34.7437 24.5408L34.0307 24.3625C33.8747 24.3254 33.72 24.2796 33.5665 24.2251C33.413 24.1706 33.2731 24.1038 33.1469 24.0246C33.0206 23.9429 32.9204 23.8438 32.8461 23.7275C32.7743 23.6111 32.7384 23.4737 32.7384 23.3153C32.7409 23.1246 32.7966 22.955 32.9055 22.8065C33.0144 22.658 33.1716 22.5404 33.3771 22.4537C33.5826 22.3671 33.8289 22.3237 34.1161 22.3237C34.5246 22.3237 34.8564 22.4141 35.1114 22.5948ZM12.9077 28.8671H14.3783L15.0073 26.9917H17.8666L18.4967 28.8671H19.9673L17.2861 21.2616H15.5852L12.9077 28.8671ZM17.4948 25.8851L16.4654 22.8214H16.4059L15.3784 25.8851H17.4948ZM22.3468 28.8671V21.2616H20.969V28.8671H22.3468ZM26.416 28.8671H23.8387V21.2616H26.468C27.2231 21.2616 27.8717 21.4139 28.4139 21.7184C28.9586 22.0204 29.377 22.4549 29.6691 23.0219C29.9612 23.5888 30.1073 24.2672 30.1073 25.0569C30.1073 25.8492 29.96 26.53 29.6654 27.0994C29.3732 27.6688 28.9511 28.1058 28.399 28.4103C27.8494 28.7148 27.1884 28.8671 26.416 28.8671ZM25.2165 27.675H26.3491C26.8789 27.675 27.3209 27.5785 27.6749 27.3854C28.0289 27.1898 28.2951 26.8989 28.4733 26.5127C28.6516 26.124 28.7407 25.6387 28.7407 25.0569C28.7407 24.4751 28.6516 23.9924 28.4733 23.6086C28.2951 23.2224 28.0314 22.934 27.6823 22.7434C27.3357 22.5503 26.9049 22.4537 26.39 22.4537H25.2165V27.675Z" fill="#B5E4FF"/>
</svg>
