<svg width="29" height="30" viewBox="0 0 29 30" fill="none" xmlns="http://www.w3.org/2000/svg">
<g clip-path="url(#clip0_142_1604)">
<path d="M13.5 0.75C14.0778 0.750286 14.6334 0.972864 15.0516 1.37161C15.4698 1.77036 15.7185 2.31471 15.7463 2.89187C15.7741 3.46903 15.5787 4.03475 15.2007 4.4718C14.8228 4.90886 14.2911 5.18374 13.716 5.2395L13.5 5.25H6C5.82446 5.24994 5.65446 5.31146 5.51961 5.42383C5.38476 5.53621 5.2936 5.69233 5.262 5.865L5.25 6V24C5.24994 24.1755 5.31146 24.3455 5.42383 24.4804C5.53621 24.6152 5.69233 24.7064 5.865 24.738L6 24.75H12.75C13.3278 24.7503 13.8834 24.9729 14.3016 25.3716C14.7198 25.7704 14.9685 26.3147 14.9963 26.8919C15.0241 27.469 14.8287 28.0347 14.4507 28.4718C14.0728 28.9089 13.5411 29.1837 12.966 29.2395L12.75 29.25H6C4.6574 29.2501 3.36578 28.7358 2.39069 27.8129C1.4156 26.89 0.831151 25.6286 0.7575 24.288L0.75 24V6C0.749896 4.6574 1.26417 3.36578 2.18709 2.39069C3.11 1.4156 4.37142 0.831151 5.712 0.7575L6 0.75H13.5ZM16.41 9.165C16.8177 8.75585 17.3671 8.51915 17.9445 8.5039C18.5218 8.48865 19.083 8.69603 19.5117 9.0831C19.9404 9.47016 20.2038 10.0073 20.2474 10.5832C20.2911 11.1591 20.1115 11.7298 19.746 12.177L19.5915 12.348L19.1895 12.75H25.5C26.0778 12.7503 26.6334 12.9729 27.0516 13.3716C27.4698 13.7704 27.7185 14.3147 27.7463 14.8919C27.7741 15.469 27.5787 16.0347 27.2007 16.4718C26.8228 16.9089 26.2911 17.1837 25.716 17.2395L25.5 17.25H19.1895L19.5915 17.652C20.0007 18.0597 20.2374 18.6091 20.2526 19.1865C20.2678 19.7638 20.0605 20.325 19.6734 20.7537C19.2863 21.1824 18.7492 21.4458 18.1733 21.4894C17.5974 21.5331 17.0267 21.3535 16.5795 20.988L16.4085 20.8335L12.1665 16.5915C11.7724 16.1977 11.5384 15.6716 11.5099 15.1152C11.4813 14.5588 11.6603 14.0116 12.012 13.5795L12.1665 13.4085L16.4085 9.1665L16.41 9.165Z" fill="#B5E4FF"/>
</g>
<defs>
<clipPath id="clip0_142_1604">
<rect width="28.5" height="30" fill="white"/>
</clipPath>
</defs>
</svg>
