<svg width="39" height="30" viewBox="0 0 39 30" fill="none" xmlns="http://www.w3.org/2000/svg">
<g clip-path="url(#clip0_142_1608)">
<path d="M30.9202 27.4038C28.9428 23.9332 25.855 21.229 22.1539 19.7264C23.9944 18.3461 25.3539 16.4216 26.0399 14.2256C26.7259 12.0296 26.7035 9.67344 25.976 7.49086C25.2485 5.30829 23.8527 3.40995 21.9863 2.06474C20.1199 0.719538 17.8776 -0.0043335 15.577 -0.0043335C13.2763 -0.0043335 11.034 0.719538 9.16764 2.06474C7.30127 3.40995 5.90546 5.30829 5.17794 7.49086C4.45042 9.67344 4.42806 12.0296 5.11403 14.2256C5.80001 16.4216 7.15954 18.3461 9.00004 19.7264C5.29897 21.229 2.21117 23.9332 0.233699 27.4038C0.111168 27.6009 0.0295015 27.8205 -0.00644519 28.0497C-0.0423919 28.2789 -0.0318851 28.513 0.0244506 28.7381C0.0807863 28.9632 0.181801 29.1746 0.321489 29.3599C0.461177 29.5452 0.636687 29.7004 0.837585 29.8165C1.03848 29.9326 1.26067 30.0071 1.49093 30.0356C1.72119 30.064 1.95483 30.0459 2.17796 29.9823C2.40108 29.9187 2.60914 29.8109 2.78976 29.6653C2.97039 29.5196 3.11989 29.3392 3.22937 29.1346C5.84283 24.6173 10.4582 21.9231 15.577 21.9231C20.6957 21.9231 25.3111 24.6187 27.9246 29.1346C28.1618 29.5161 28.5382 29.7905 28.974 29.8995C29.4099 30.0086 29.8711 29.944 30.2601 29.7192C30.6492 29.4944 30.9356 29.1272 31.0587 28.6951C31.1819 28.263 31.1323 27.8 30.9202 27.4038ZM8.07697 10.9615C8.07697 9.47817 8.51684 8.02812 9.34095 6.79476C10.1651 5.56139 11.3364 4.60009 12.7068 4.03244C14.0773 3.46478 15.5853 3.31625 17.0401 3.60564C18.495 3.89503 19.8314 4.60934 20.8803 5.65823C21.9292 6.70712 22.6435 8.0435 22.9329 9.49835C23.2222 10.9532 23.0737 12.4612 22.5061 13.8317C21.9384 15.2021 20.9771 16.3734 19.7437 17.1976C18.5104 18.0217 17.0603 18.4615 15.577 18.4615C13.5885 18.4592 11.6822 17.6683 10.2762 16.2623C8.87017 14.8563 8.07926 12.95 8.07697 10.9615Z" fill="#B5E4FF"/>
<path fill-rule="evenodd" clip-rule="evenodd" d="M34.5 11C33.6716 11 33 11.6716 33 12.5V14H31.5C30.6716 14 30 14.6716 30 15.5C30 16.3284 30.6716 17 31.5 17H33V18.5C33 19.3284 33.6716 20 34.5 20C35.3284 20 36 19.3284 36 18.5V17H37.5C38.3284 17 39 16.3284 39 15.5C39 14.6716 38.3284 14 37.5 14H36V12.5C36 11.6716 35.3284 11 34.5 11Z" fill="#B5E4FF"/>
</g>
<defs>
<clipPath id="clip0_142_1608">
<rect width="39" height="30" fill="white"/>
</clipPath>
</defs>
</svg>
