<svg width="29" height="29" viewBox="0 0 29 29" fill="none" xmlns="http://www.w3.org/2000/svg">
<g clip-path="url(#clip0_142_1716)">
<path d="M13.437 0C14.0659 0 14.6691 0.237335 15.1138 0.659794C15.5584 1.08225 15.8083 1.65523 15.8083 2.25268C15.8083 2.85013 15.5584 3.4231 15.1138 3.84556C14.6691 4.26802 14.0659 4.50536 13.437 4.50536H5.53289C5.32326 4.50536 5.12222 4.58447 4.97399 4.72529C4.82576 4.86611 4.74248 5.0571 4.74248 5.25625V23.2777C4.74248 23.4768 4.82576 23.6678 4.97399 23.8086C5.12222 23.9495 5.32326 24.0286 5.53289 24.0286H12.6466C13.2755 24.0286 13.8786 24.2659 14.3233 24.6884C14.768 25.1108 15.0179 25.6838 15.0179 26.2812C15.0179 26.8787 14.768 27.4517 14.3233 27.8741C13.8786 28.2966 13.2755 28.5339 12.6466 28.5339H5.53289C4.06548 28.5339 2.65817 27.9801 1.62055 26.9944C0.582929 26.0087 0 24.6717 0 23.2777V5.25625C0 3.86221 0.582929 2.52526 1.62055 1.53952C2.65817 0.553782 4.06548 0 5.53289 0H13.437ZM23.0168 8.42502L27.489 12.6751C27.9331 13.0974 28.1825 13.67 28.1825 14.267C28.1825 14.8639 27.9331 15.4365 27.489 15.8589L23.0184 20.1089C22.5736 20.5315 21.9703 20.7689 21.3412 20.7689C20.7121 20.7689 20.1087 20.5315 19.6639 20.1089C19.2191 19.6863 18.9692 19.1132 18.9692 18.5155C18.9692 17.9179 19.2191 17.3447 19.6639 16.9221L20.0876 16.5196H13.437C12.8081 16.5196 12.205 16.2823 11.7603 15.8598C11.3156 15.4374 11.0658 14.8644 11.0658 14.267C11.0658 13.6695 11.3156 13.0965 11.7603 12.6741C12.205 12.2516 12.8081 12.0143 13.437 12.0143H20.0876L19.6639 11.6118C19.4438 11.4026 19.2691 11.1542 19.15 10.8808C19.0309 10.6075 18.9697 10.3145 18.9697 10.0186C18.9698 9.72278 19.0312 9.42984 19.1505 9.15654C19.2697 8.88323 19.4444 8.63492 19.6647 8.42577C19.885 8.21662 20.1464 8.05073 20.4342 7.93758C20.7219 7.82443 21.0303 7.76622 21.3417 7.76629C21.6531 7.76636 21.9615 7.8247 22.2492 7.93799C22.5369 8.05127 22.7983 8.21727 23.0184 8.42652L23.0168 8.42502Z" fill="#B5E4FF"/>
</g>
<defs>
<clipPath id="clip0_142_1716">
<rect width="29" height="29" fill="white"/>
</clipPath>
</defs>
</svg>
